<svg viewBox="0 0 64 64" xmlns="http://www.w3.org/2000/svg"><circle cx="31.5" cy="33.5" fill="#eaeaea" r="21.5"/><path d="m54 14.463v1.415" fill="none" stroke="#4c241d" stroke-linecap="round" stroke-linejoin="round" stroke-width="2"/><path d="m54 20.122v1.415" fill="none" stroke="#4c241d" stroke-linecap="round" stroke-linejoin="round" stroke-width="2"/><path d="m50.463 18h1.415" fill="none" stroke="#4c241d" stroke-linecap="round" stroke-linejoin="round" stroke-width="2"/><path d="m56.122 18h1.415" fill="none" stroke="#4c241d" stroke-linecap="round" stroke-linejoin="round" stroke-width="2"/><circle cx="20.5" cy="11.5" fill="none" r="2.5" stroke="#4c241d" stroke-linecap="round" stroke-linejoin="round" stroke-width="2"/><circle cx="35.5" cy="20.5" fill="#4c241d" r="1.069"/><circle cx="46.5" cy="7.5" fill="#4c241d" r="1.069"/><circle cx="5.5" cy="5.5" fill="#4c241d" r="1.069"/><g stroke="#4c241d" stroke-linecap="round" stroke-linejoin="round" stroke-width="2"><path d="m11.252 26h45.5a5.252 5.252 0 0 1 5.248 5.252v7.748a0 0 0 0 1 0 0h-56a0 0 0 0 1 0 0v-7.748a5.252 5.252 0 0 1 5.252-5.252z" fill="#e66353"/><path d="m6 39v17h56v-5.4a2.6 2.6 0 0 0 -2.6-2.6h-.4v-8.948s-53.169.123-53-.052z" fill="#e66353"/><path d="m10 30h6v5h-6z" fill="#9dc1e4"/><path d="m20 30h6v5h-6z" fill="#9dc1e4"/><path d="m30 30h6v5h-6z" fill="#9dc1e4"/><path d="m40 30h6v5h-6z" fill="#9dc1e4"/><path d="m50 30h6v5h-6z" fill="#9dc1e4"/><path d="m10.118 43h5.882v13h-5.882z" fill="#6b4f5b"/><path d="m20 43h27v5h-27z" fill="#9dc1e4"/><path d="m51 39h8v9h-8z" fill="#9dc1e4"/><circle cx="52.824" cy="55.342" fill="#6b4f5b" r="3.928"/></g><circle cx="52.824" cy="55.342" fill="#4c241d" r="1.028"/><circle cx="25.353" cy="55.342" fill="#6b4f5b" r="3.928" stroke="#4c241d" stroke-linecap="round" stroke-linejoin="round" stroke-width="2"/><circle cx="25.353" cy="55.342" fill="#4c241d" r="1.01"/><path d="m26 43v5" fill="none" stroke="#4c241d" stroke-linecap="round" stroke-linejoin="round" stroke-width="2"/><path d="m32 43v5" fill="none" stroke="#4c241d" stroke-linecap="round" stroke-linejoin="round" stroke-width="2"/><path d="m38 43v5" fill="none" stroke="#4c241d" stroke-linecap="round" stroke-linejoin="round" stroke-width="2"/></svg>